<?xml version="1.0" encoding="UTF-8" standalone="no"?>
<svg
   xmlns:dc="http://purl.org/dc/elements/1.1/"
   xmlns:cc="http://creativecommons.org/ns#"
   xmlns:rdf="http://www.w3.org/1999/02/22-rdf-syntax-ns#"
   xmlns:svg="http://www.w3.org/2000/svg"
   xmlns="http://www.w3.org/2000/svg"
   id="svg4"
   xml:space="preserve"
   viewBox="0 0 14 13"
   height="13"
   width="14"
   y="0px"
   x="0px"
   version="1.1"><metadata
     id="metadata10"><rdf:RDF><cc:Work
         rdf:about=""><dc:format>image/svg+xml</dc:format><dc:type
           rdf:resource="http://purl.org/dc/dcmitype/StillImage" /><dc:title></dc:title></cc:Work></rdf:RDF></metadata><defs
     id="defs8" /><g
     transform="translate(-5,-5)"
     style="opacity:0.75"
     id="Icons"><path
       d="m 6,15 h 12 c 0.553,0 1,0.447 1,1 v 1 c 0,0.553 -0.447,1 -1,1 H 6 C 5.447,18 5,17.553 5,17 V 16 C 5,15.447 5.447,15 6,15 Z M 5,11 v 1 c 0,0.553 0.447,1 1,1 h 12 c 0.553,0 1,-0.447 1,-1 v -1 c 0,-0.553 -0.447,-1 -1,-1 H 6 C 5.447,10 5,10.447 5,11 Z M 5,6 v 1 c 0,0.553 0.447,1 1,1 h 12 c 0.553,0 1,-0.447 1,-1 V 6 C 19,5.447 18.553,5 18,5 H 6 C 5.447,5 5,5.447 5,6 Z"
       id="menu" /></g></svg>